<svg width="116" height="32" viewBox="0 0 116 32" fill="none" xmlns="http://www.w3.org/2000/svg">
<g clip-path="url(#clip0_1_917)">
<path d="M11.5946 22.3258L8.65876 10.6777L5.61748 22.3258H11.5946ZM14.2022 31.9241L12.4863 25.8116H4.72256L3.00434 31.9241H0.0507812L7.26648 4.55957H9.944L17.1605 31.9241H14.2029H14.2022Z" fill="#3E3E93"/>
<path d="M17.1602 4.56006H20.113V16.8534L27.4308 4.56006H31.1071L23.761 16.7888L32.7601 31.9246H29.149L21.9776 19.8175L20.113 22.907V31.9246H17.1602V4.56006Z" fill="#3E3E93"/>
<path d="M35.2722 7.38281H38.2266L35.735 31.9239H32.7588L35.2722 7.38281Z" fill="#3E3E93"/>
<path d="M38.9984 0L38.2266 7.38305H41.3355L42.1105 0H38.9984Z" fill="#3E3E93"/>
<path d="M45.8441 27.4574C46.4895 26.7951 46.7213 25.8704 46.7463 24.6844V4.56226H49.6732V24.6844C49.6499 26.8711 48.9996 28.5826 47.8528 29.8237C46.7068 31.0668 45.0892 31.924 42.864 31.924C41.4346 31.924 40.1631 31.3822 39.1869 30.7769C38.2099 30.1687 37.4268 29.2992 36.8369 28.1644L39.4042 26.5745C41.2222 29.3789 44.7004 28.5379 45.8441 27.4584" fill="#3E3E93"/>
<path d="M72.8035 20.2311C70.9743 20.2311 69.4854 18.4739 69.4854 16.3128V14.7676H71.4765V16.3128C71.4765 17.1766 72.072 17.8799 72.8035 17.8799C73.535 17.8799 74.1306 17.1766 74.1306 16.3128V15.2808C74.1306 14.2449 73.1214 13.7356 72.5202 13.5246C70.6201 12.8584 69.4854 11.3598 69.4854 9.51517V8.48312C69.4854 6.32304 70.9743 4.56494 72.8035 4.56494C74.6328 4.56494 76.1216 6.32304 76.1216 8.48312V10.0283H74.1306V8.48312C74.1306 7.61928 73.535 6.91604 72.8035 6.91604C72.072 6.91604 71.4765 7.61928 71.4765 8.48312V9.51517C71.4765 10.551 72.4856 11.0604 73.0868 11.2704C74.9869 11.9375 76.1216 13.4362 76.1216 15.2798V16.3119C76.1216 18.4719 74.6328 20.2301 72.8035 20.2301V20.2311Z" fill="black"/>
<path d="M80.7654 20.2329C78.9362 20.2329 77.4473 18.4757 77.4473 16.3147V8.48312C77.4473 6.32304 78.9362 4.56494 80.7654 4.56494C82.5947 4.56494 84.0835 6.32304 84.0835 8.48312V16.3147C84.0835 18.4749 82.5947 20.2329 80.7654 20.2329ZM80.7654 6.91698C80.0339 6.91698 79.4384 7.62023 79.4384 8.48407V16.3157C79.4384 17.1796 80.0339 17.8828 80.7654 17.8828C81.497 17.8828 82.0925 17.1796 82.0925 16.3157V8.48407C82.0925 7.62023 81.497 6.91698 80.7654 6.91698Z" fill="black"/>
<path d="M88.7342 20.2336C86.9049 20.2336 85.416 18.4766 85.416 16.3155V4.56763H87.4071V16.3164C87.4071 17.1803 88.0027 17.8835 88.7342 17.8835C89.4657 17.8835 90.0613 17.1803 90.0613 16.3164V4.56763H92.0523V16.3164C92.0523 18.4766 90.5635 20.2346 88.7342 20.2346V20.2336Z" fill="black"/>
<path d="M58.7351 20.235H60.8509L58.736 12.9013C59.6156 12.1962 60.1958 11.0054 60.1958 9.65789V8.48424C60.1958 6.32415 58.707 4.56606 56.8777 4.56606H55.5579V4.56226H53.5596V4.56606V6.91716V11.2249V13.576V20.235H55.5579V13.576H56.815L58.7351 20.235ZM55.5579 6.91716H56.8777C57.6093 6.91716 58.2048 7.62039 58.2048 8.48424V9.65789C58.2048 10.5217 57.6093 11.2249 56.8777 11.2249H55.5579V6.91716Z" fill="black"/>
<path d="M98.5525 20.235H100.668L98.5533 12.9013C99.4329 12.1962 100.013 11.0054 100.013 9.65789V8.48424C100.013 6.32415 98.5243 4.56606 96.695 4.56606H95.3752V4.56226H93.377V4.56606V6.91716V11.2249V13.576V20.235H95.3752V13.576H96.6322L98.5525 20.235ZM95.3752 6.91716H96.695C97.4267 6.91716 98.0221 7.62039 98.0221 8.48424V9.65789C98.0221 10.5217 97.4267 11.2249 96.695 11.2249H95.3752V6.91716Z" fill="black"/>
<path d="M68.1587 6.92167V4.56201H63.5208H61.5225V6.92167V11.2199V13.5796V17.8779V20.2347V20.2375H68.1587V17.8779H63.5208V13.5796H68.1587V11.2199H63.5208V6.92167H68.1587Z" fill="black"/>
<path d="M115.94 6.92167V4.56201H111.302H109.303V6.92167V11.2199V13.5796V17.8779V20.2347V20.2375H115.94V17.8779H111.302V13.5796H115.94V11.2199H111.302V6.92167H115.94Z" fill="black"/>
<path d="M104.658 20.2329C102.829 20.2329 101.34 18.4757 101.34 16.3147V8.48312C101.34 6.32304 102.829 4.56494 104.658 4.56494C106.487 4.56494 107.976 6.32304 107.976 8.48312V10.0474H105.985V8.48312C105.985 7.61928 105.389 6.91604 104.658 6.91604C103.926 6.91604 103.331 7.61928 103.331 8.48312V16.3147C103.331 17.1786 103.926 17.8818 104.658 17.8818C105.389 17.8818 105.985 17.1786 105.985 16.3147V14.7495H107.976V16.3147C107.976 18.4748 106.487 20.2329 104.658 20.2329Z" fill="black"/>
<path d="M105.37 27.009C105.177 27.0394 104.969 27.0889 104.746 27.1583C104.69 27.1735 104.618 27.2334 104.53 27.3388C104.444 27.4443 104.4 27.526 104.4 27.5831C104.4 27.6372 104.41 27.6648 104.429 27.6648H105.233C105.422 27.6648 105.532 27.6153 105.566 27.5156C105.541 27.3739 105.522 27.2599 105.51 27.1725C105.505 27.1421 105.459 27.0879 105.37 27.01V27.009Z" fill="#EDF5FF"/>
<path d="M102.53 23.2552C102.537 23.2789 102.54 23.2998 102.54 23.3198V24.1077C102.479 24.4079 102.415 24.903 102.346 25.5939C102.333 25.7098 102.278 26.0444 102.18 26.5965C102.185 26.6536 102.188 26.74 102.19 26.856C102.158 27.0564 102.121 27.3596 102.08 27.7654C102.076 27.9165 102.074 28.0553 102.074 28.1797C102.074 28.5238 102.087 28.7661 102.112 28.9067C102.099 28.939 102.089 28.9827 102.08 29.037C102.121 29.1015 102.142 29.1833 102.142 29.2802C102.142 29.4019 102.118 29.5111 102.072 29.6071C102.025 29.7031 101.97 29.7516 101.905 29.7516C101.873 29.7516 101.819 29.7145 101.744 29.6394C101.669 29.5653 101.62 29.4979 101.599 29.438C101.594 29.4113 101.582 29.2364 101.565 28.9144C101.536 28.8601 101.522 28.825 101.522 28.8088V27.8262L101.907 24.0744C101.937 23.8957 101.953 23.7873 101.955 23.7494V23.7456C101.955 23.7161 101.949 23.64 101.937 23.5184L101.918 23.3198L101.939 23.2552H99.5544C99.5769 23.2865 99.597 23.3236 99.6124 23.3654C99.6462 23.4566 99.6317 23.5374 99.6156 23.7702C99.5841 23.8881 99.4731 25.4409 99.457 25.8182C99.5761 25.8705 99.6453 25.8952 99.6639 25.8952L99.7902 25.8629C99.898 25.8353 99.9745 25.821 100.02 25.8192C100.135 25.8154 100.356 25.8238 100.439 25.8533L100.563 25.8971C100.756 25.8904 100.855 25.9607 100.858 26.1061C100.861 26.1993 100.839 26.2696 100.794 26.319C100.749 26.3684 100.662 26.415 100.534 26.4587C100.424 26.4995 100.354 26.5414 100.322 26.5851C100.189 26.6184 100.119 26.6354 100.111 26.6354C99.981 26.6392 99.8658 26.5861 99.6115 26.6554C99.5319 26.6735 99.4852 26.721 99.4707 26.7951C99.4425 26.9472 99.4151 27.1838 99.3861 27.5059C99.3894 27.7787 99.391 28.8773 99.3491 29.4807C99.2985 29.6071 99.1955 29.764 99.1962 29.7725C99.0232 29.762 98.9154 29.7202 98.8728 29.648C98.8526 29.6119 98.8413 29.5111 98.8374 29.3468C98.8325 29.1452 98.8333 27.869 98.8824 26.8388C98.8413 26.7818 98.8036 26.7542 98.7673 26.7552C98.7625 26.7552 98.7576 26.7552 98.7528 26.7552C98.7077 26.7676 98.6716 26.7742 98.645 26.7742C98.6273 26.7742 98.6144 26.7723 98.6047 26.7676C98.4454 26.76 98.2885 26.7542 98.1324 26.7514C97.936 26.7019 97.8346 26.5414 97.8281 26.2677C97.8257 26.1745 97.845 26.0909 97.8861 26.0149C97.9271 25.9389 97.9738 25.9008 98.0269 25.899C98.0317 25.899 98.076 25.9046 98.1605 25.916C98.245 25.9274 98.2901 25.9341 98.2965 25.9332C98.2998 25.9332 98.3359 25.9266 98.406 25.9132C98.476 25.9008 98.513 25.8942 98.5178 25.8933C98.5226 25.8933 98.5428 25.9046 98.5774 25.9274C98.5935 25.937 98.6056 25.9436 98.6144 25.9493C98.6192 25.9474 98.6305 25.9446 98.6507 25.9417C98.7319 25.9284 98.7746 25.9218 98.7778 25.9218C98.8583 25.919 98.9066 25.8495 98.9234 25.7136C98.9379 25.6044 99.0071 23.5498 99.078 23.3246C99.0869 23.2979 99.0973 23.2741 99.1094 23.2523H88.0436V23.9081C87.9832 24.2083 87.9188 24.7035 87.8512 25.3944C87.8392 25.5102 87.7836 25.8448 87.6854 26.3969C87.6911 26.454 87.6943 26.5404 87.6959 26.6564C87.6637 26.8568 87.6274 27.16 87.5864 27.5658C87.5824 27.7169 87.5808 27.8557 87.5808 27.9802C87.5808 28.3242 87.5929 28.5665 87.6178 28.7072C87.6058 28.7395 87.5945 28.7832 87.5856 28.8374C87.6267 28.902 87.6476 28.9837 87.6476 29.0807C87.6476 29.2023 87.6242 29.3116 87.5775 29.4075C87.5309 29.5035 87.4761 29.552 87.4119 29.552C87.3797 29.552 87.3265 29.5149 87.2516 29.4398C87.1769 29.3657 87.1286 29.2983 87.1076 29.2384C87.102 29.2118 87.0907 29.037 87.073 28.7148C87.044 28.6606 87.0304 28.6254 87.0304 28.6092V27.6267L87.4126 23.8748C87.4432 23.6961 87.4593 23.5877 87.4609 23.5498V23.546C87.4609 23.5165 87.4545 23.4404 87.4424 23.3188L87.4359 23.2514H78.2284C78.2276 24.2568 78.2172 24.9106 78.1979 25.2109C78.2083 25.4 78.2131 25.6357 78.2131 25.917C78.2131 26.2715 78.2059 26.6925 78.1914 27.18C78.1576 27.2694 78.1093 27.4061 78.0473 27.5906L77.9628 27.5535H77.9652C77.9652 27.5535 77.8268 27.5279 77.5499 27.4841L77.1348 27.4195C76.9568 27.4195 76.7211 27.468 76.4265 27.5658C76.1053 27.6713 75.9211 27.7806 75.8744 27.8946C75.8696 27.9004 75.8277 27.9307 75.748 27.9878C75.6684 28.0495 75.6281 28.1284 75.6281 28.2234C75.6281 28.2587 75.6523 28.3251 75.7013 28.422C75.7505 28.5171 75.7939 28.5846 75.8326 28.6254C75.9629 28.7585 76.1118 28.824 76.2808 28.824C76.3742 28.824 76.6647 28.7547 77.1532 28.6168L77.8856 28.406H77.9459C77.9636 28.406 77.9725 28.4335 77.9725 28.4867C77.9725 28.5399 77.9556 28.6198 77.921 28.7224C77.8872 28.8222 77.8541 28.8867 77.8236 28.9134C77.7527 28.9761 77.5016 29.1082 77.0711 29.3116C76.7372 29.4684 76.4941 29.5472 76.3436 29.5472C76.3316 29.5501 76.3098 29.553 76.2768 29.5558C76.2414 29.5558 76.1858 29.5586 76.1102 29.5644L75.8664 29.5767L75.7601 29.4911C75.7231 29.4883 75.6668 29.4617 75.5919 29.4095C75.4865 29.2717 75.406 29.1262 75.3497 28.9751C75.3111 28.8697 75.2717 28.71 75.2298 28.4962C75.1944 28.3042 75.1767 28.1807 75.1767 28.1265C75.1767 27.9916 75.2202 27.8291 75.3078 27.639C75.4495 27.3245 75.711 27.0973 76.0917 26.9566C76.115 26.9348 76.1432 26.9083 76.1762 26.8749C76.3299 26.8341 76.49 26.7818 76.6558 26.7163C76.771 26.6678 76.944 26.643 77.175 26.643C77.5637 26.643 77.7761 26.6392 77.8115 26.6307C77.822 26.1194 77.8502 25.5036 77.896 24.7832C77.8735 24.6674 77.8614 24.4906 77.8582 24.2549C77.8638 24.2111 77.867 24.1019 77.867 23.9261C77.867 23.8149 77.8654 23.6781 77.8622 23.5165V23.3701C77.8622 23.3284 77.8622 23.2885 77.8622 23.2504H58.1281C58.1507 23.2817 58.1707 23.3188 58.1861 23.3607C58.2199 23.4519 58.2054 23.5326 58.1893 23.7655C58.1579 23.8833 58.0468 25.4361 58.0307 25.8134C58.1498 25.8657 58.219 25.8904 58.2376 25.8904L58.3639 25.8581C58.4717 25.8306 58.5482 25.8162 58.5941 25.8144C58.7091 25.8106 58.9296 25.8192 59.0126 25.8486L59.1365 25.8923C59.3297 25.8857 59.4286 25.956 59.4318 26.1014C59.4343 26.1945 59.4125 26.2648 59.3674 26.3142C59.3224 26.3637 59.2354 26.4102 59.1075 26.454C58.9981 26.4949 58.928 26.5366 58.8958 26.5803C58.7631 26.6136 58.6923 26.6307 58.685 26.6307C58.5547 26.6345 58.4395 26.5813 58.1852 26.6506C58.1056 26.6687 58.0589 26.7163 58.0444 26.7903C58.0162 26.9424 57.9889 27.179 57.9599 27.5012C57.9631 27.774 57.9647 28.8725 57.9229 29.476C57.8722 29.6023 57.7692 29.7592 57.7699 29.7678C57.597 29.7572 57.4891 29.7155 57.4464 29.6432C57.4263 29.6071 57.4151 29.5064 57.411 29.342C57.4062 29.1405 57.407 27.8642 57.4561 26.8341C57.4151 26.7771 57.3772 26.7494 57.341 26.7504C57.3362 26.7504 57.3314 26.7504 57.3265 26.7504C57.2815 26.7628 57.2452 26.7694 57.2187 26.7694C57.201 26.7694 57.1881 26.7676 57.1785 26.7628C57.0191 26.7552 56.8622 26.7494 56.7061 26.7466C56.5097 26.6973 56.4083 26.5366 56.4019 26.2629C56.3994 26.1698 56.4187 26.0861 56.4598 26.0102C56.5008 25.9341 56.5475 25.8961 56.6006 25.8942C56.6054 25.8942 56.6498 25.8999 56.7342 25.9113C56.8188 25.9228 56.8638 25.9294 56.8703 25.9284C56.8735 25.9284 56.9097 25.9218 56.9796 25.9084C57.0497 25.8961 57.0867 25.8895 57.0915 25.8885C57.0964 25.8885 57.1164 25.8999 57.1511 25.9228C57.1672 25.9322 57.1792 25.9389 57.1881 25.9446C57.1929 25.9427 57.2042 25.9398 57.2243 25.937C57.3056 25.9236 57.3482 25.917 57.3514 25.917C57.4319 25.9142 57.4802 25.8448 57.4972 25.7088C57.5116 25.5996 57.5809 23.545 57.6517 23.3198C57.6605 23.2932 57.671 23.2695 57.683 23.2476H53.5625V31.9164H115.943V23.2476H102.534L102.53 23.2552ZM62.0312 28.4753C61.9411 28.6729 61.7697 28.8896 61.5163 29.1253C61.3376 29.2907 61.1372 29.4208 60.915 29.5149C60.8587 29.5396 60.7943 29.5682 60.7219 29.6005C60.5368 29.6005 60.3284 29.4865 60.0958 29.2593C59.8358 29.0075 59.687 28.7148 59.65 28.3822C59.6443 28.3499 59.6314 28.2824 59.6121 28.1788C59.5872 28.0543 59.5743 27.984 59.5743 27.9678C59.5743 27.9165 59.5912 27.7892 59.625 27.5858C59.6588 27.3824 59.687 27.2484 59.7095 27.1838C59.7376 27.0916 59.8061 26.9995 59.9156 26.9083L60.1329 26.721C60.2865 26.5585 60.4676 26.3998 60.6768 26.2458L60.8458 26.2258C60.8667 26.2069 60.895 26.1813 60.9304 26.1489C60.9392 26.1489 60.9875 26.1404 61.0744 26.1242C61.1613 26.108 61.208 26.0995 61.2144 26.0995C61.6538 26.0995 61.9379 26.4416 62.0667 27.1268C62.1303 27.4594 62.1616 27.6466 62.1616 27.6874C62.1616 28.0153 62.1182 28.2776 62.0305 28.4753H62.0312ZM67.3501 26.6155C67.3365 26.6725 67.3123 26.7486 67.2769 26.8426C67.2294 26.9073 67.1714 27.0033 67.1038 27.1306C67.0845 27.2037 67.0467 27.3131 66.9904 27.4594C66.9446 27.5269 66.8914 27.6133 66.8303 27.7188C66.7811 27.8547 66.7369 27.9764 66.6974 28.0847C66.6645 28.1655 66.555 28.3822 66.3667 28.7347C66.1389 29.1567 65.9933 29.3686 65.9296 29.3686C65.7953 29.3686 65.5539 28.9628 65.2062 28.1503L65.0243 27.7283C65.0098 27.7283 64.9325 27.8471 64.7934 28.0856C64.6154 28.386 64.5036 28.5685 64.4561 28.634C64.073 29.1643 63.8517 29.4304 63.7922 29.4304C63.7036 29.4304 63.6312 29.3733 63.5773 29.2593C63.4783 29.0559 63.3761 28.5418 63.2707 27.716C63.1837 27.0422 63.1395 26.6687 63.1395 26.5955C63.1395 26.5661 63.1757 26.4464 63.2481 26.2382C63.2924 26.2059 63.3206 26.1897 63.3327 26.1897C63.3737 26.1897 63.4252 26.2496 63.4856 26.3684C63.5459 26.4873 63.5806 26.5945 63.5878 26.6887C63.5878 26.7372 63.5918 26.8131 63.599 26.9158C63.6521 27.1895 63.6892 27.4109 63.7101 27.582C63.7133 27.7227 63.7487 27.9365 63.8163 28.2234H63.8718C63.9564 28.2234 64.1454 27.9611 64.44 27.4357L64.9679 26.4901C64.9946 26.4444 65.038 26.4207 65.0992 26.4207C65.1981 26.4207 65.2899 26.5861 65.3744 26.9158C65.4323 27.1382 65.4702 27.2722 65.4895 27.3177C65.5144 27.4014 65.5643 27.563 65.6383 27.8015C65.7268 28.0828 65.7985 28.2234 65.8532 28.2234C65.8942 28.2234 66.0062 28.0505 66.188 27.7036C66.2467 27.5896 66.3603 27.3748 66.5277 27.0584C66.5928 26.9367 66.8664 26.5224 67.3485 25.8162C67.3855 25.8106 67.4523 25.783 67.5481 25.7308C67.5956 25.8799 67.6189 26.0111 67.6189 26.1242C67.6189 26.2372 67.5288 26.3959 67.3485 26.6155H67.3501ZM70.599 29.3638C70.562 29.4484 70.5193 29.4903 70.4726 29.4903C70.4051 29.4703 70.1999 29.2584 69.8772 28.9809C69.6921 28.8232 69.6116 28.6283 69.5939 28.6168C69.5215 28.6168 69.4079 28.8392 69.2759 28.9343C69.1005 29.0607 68.9991 29.132 68.9717 29.149C68.8558 29.2108 68.7399 29.2412 68.6258 29.2412C68.48 29.2412 68.3014 29.0835 68.0898 28.7699C68.0173 28.6016 67.9803 28.4515 67.9803 28.3194C67.9803 28.1427 68.0157 27.907 68.0865 27.6115C68.1018 27.5411 68.1896 27.39 68.274 27.3254L68.4398 26.949C68.814 26.5785 69.1158 26.3703 69.4265 26.3703C69.515 26.3703 69.6301 26.4121 69.7726 26.4967C69.8144 26.5224 69.8651 26.6193 69.9262 26.7875C69.989 26.9558 70.154 27.0935 70.154 27.1752C70.154 27.3159 70.1589 27.6352 70.0276 27.8291C69.8241 27.5487 69.6132 27.2351 69.3669 27.238C69.2389 27.2399 69.1069 27.2902 68.9717 27.3938C68.802 27.5231 68.6651 28.0258 68.563 28.1797C68.575 28.2643 68.6619 28.3926 68.773 28.3926C68.7641 28.3926 68.9283 28.309 69.1327 28.193C69.4015 28.0401 69.573 27.8309 69.7033 27.8604C69.8522 27.8936 69.874 27.9782 70.0961 28.2795C70.3351 28.6054 70.4896 28.8715 70.5918 28.9561C70.6336 29.015 70.6538 29.0588 70.6538 29.0863C70.6538 29.1871 70.6352 29.2802 70.5974 29.3648L70.599 29.3638ZM74.4692 27.2646L74.429 27.1952C74.3993 27.2418 74.3719 27.2646 74.3469 27.2646C74.3324 27.2646 74.1626 27.237 73.8391 27.1828L73.3313 27.0973C72.8887 27.0973 72.578 27.3596 72.3994 27.8852C72.355 28.0153 72.314 28.2425 72.277 28.5675C72.2665 28.5836 72.2497 28.615 72.2263 28.6606C72.2263 28.8421 72.2078 29.0845 72.1708 29.3875C72.1057 29.4342 72.038 29.457 71.9664 29.457C71.8054 29.457 71.7242 29.2726 71.7242 28.9048C71.729 28.8478 71.7394 28.6568 71.7571 28.3318C71.778 27.9526 71.7797 27.3397 71.7886 27.1477C71.8408 26.7039 71.9036 26.662 71.9696 26.662C72.1193 26.6488 72.1458 27.0602 72.1563 27.0602C72.1611 27.0602 72.2182 26.9804 72.3293 26.8208C72.446 26.7049 72.5748 26.5851 72.7156 26.4634C72.8517 26.3446 73.0118 26.2847 73.1953 26.2847C73.2484 26.2847 73.642 26.3989 74.3759 26.626C74.3807 26.6392 74.3928 26.664 74.4137 26.6991L74.6447 26.7476C74.6447 26.9291 74.6527 27.0308 74.6688 27.0526C74.664 27.0584 74.598 27.1287 74.4692 27.2636V27.2646ZM80.1808 27.2285C80.2299 27.2418 80.333 27.2912 80.4891 27.3748C80.5277 27.4024 80.6082 27.4546 80.7313 27.5335L80.7642 27.5535C80.7876 27.5668 80.8592 27.6209 80.9792 27.716C81.0532 27.773 81.1192 27.868 81.1772 28.0002C81.2004 28.0485 81.2206 28.1493 81.2367 28.3004C81.2367 28.3062 81.2455 28.3356 81.2641 28.3898C81.2825 28.4439 81.2922 28.4781 81.2922 28.4914C81.2922 28.538 81.2632 28.6016 81.2053 28.6843C81.1473 28.7671 81.091 28.8232 81.0371 28.8525C80.9365 28.9096 80.7426 29.0188 80.456 29.1813C80.1301 29.3629 79.8878 29.4532 79.7285 29.4532C79.7237 29.4532 79.6931 29.4428 79.6351 29.4208C79.5772 29.399 79.5475 29.3885 79.5442 29.3885C79.5378 29.3885 79.4838 29.4104 79.3801 29.4532C79.3567 29.4532 79.3245 29.4019 79.2851 29.2992C79.244 29.2013 79.2231 29.1272 79.2231 29.0759C79.2231 29.0597 79.2456 28.9961 79.2915 28.8849L79.9724 28.653C80.2637 28.5551 80.4625 28.4487 80.5696 28.3318C80.5696 28.3156 80.568 28.2994 80.5655 28.2833C80.5148 28.213 80.3555 28.0762 80.0858 27.8737C79.8034 27.6599 79.6408 27.5297 79.5974 27.4841C79.5442 27.4518 79.4597 27.3662 79.3447 27.2285C79.3125 27.1714 79.2955 27.0536 79.2955 26.8749C79.2955 26.8883 79.2939 26.8949 79.2907 26.8949C79.2875 26.8949 79.2826 26.8721 79.2754 26.8255C79.2722 26.8093 79.2706 26.7932 79.2706 26.7771C79.2706 26.663 79.3414 26.5566 79.4838 26.4568C79.6537 26.3352 79.908 26.2212 80.2452 26.1138C80.5823 26.0073 80.8601 25.9531 81.0774 25.9531C81.1369 25.9531 81.1747 25.9711 81.1924 26.0064C81.2809 26.1851 81.326 26.3152 81.326 26.3959C81.326 26.55 81.297 26.6516 81.2391 26.7001C81.1884 26.7248 80.9654 26.7761 80.5687 26.854C80.4931 26.9111 80.4512 26.9396 80.4424 26.9396C80.4376 26.9396 80.4255 26.9339 80.4045 26.9234C80.3813 26.9129 80.3668 26.9073 80.3627 26.9073C80.2815 26.9073 80.1865 26.9558 80.0786 27.0536C80.0996 27.1239 80.1334 27.1819 80.1808 27.2285ZM89.3803 28.9258C89.3803 28.9741 89.3585 29.1206 89.3167 29.3638L89.2419 29.3885C89.2419 29.3885 89.2362 29.3923 89.2306 29.3923C89.192 29.3923 89.1083 29.3591 88.9795 29.2907C88.9811 29.2831 88.9827 29.2735 88.9827 29.2621C88.9827 29.2051 88.9618 29.131 88.9192 29.0388C88.854 28.901 88.817 28.8117 88.8098 28.7709C88.8082 28.7633 88.8065 28.7452 88.8065 28.7186C88.8065 28.6349 88.8146 28.4667 88.8298 28.2149C88.8604 27.7036 88.9047 27.2437 88.9627 26.8341C89.0149 26.7362 89.0793 26.6877 89.1557 26.6877C89.2403 26.6877 89.3031 26.778 89.3433 26.9596C89.3489 26.9918 89.3618 27.6447 89.3811 28.9162V28.9248L89.3803 28.9258ZM89.3707 25.9436C89.1357 25.8675 89.0182 25.7555 89.0182 25.6062C89.0182 25.4571 89.0657 25.2974 89.1605 25.1112C89.2104 25.1054 89.3135 25.0912 89.4705 25.0665C89.5436 25.2423 89.5807 25.4105 89.5807 25.5701C89.5807 25.6376 89.5107 25.7621 89.3707 25.9436ZM94.815 29.7782C94.7595 29.7915 94.7297 29.7981 94.7249 29.7981C94.6653 29.7981 94.5993 29.7211 94.5253 29.5662C94.5269 29.5577 94.5277 29.5501 94.5277 29.5416C94.5277 29.5064 94.5221 29.4588 94.51 29.399C94.4359 29.1661 94.3941 28.653 94.3837 27.8595C94.3748 27.8347 94.3603 27.8053 94.3393 27.7702C94.1558 27.7834 93.9185 27.9992 93.6271 28.4154L92.9391 29.3895C92.8988 29.4466 92.8377 29.475 92.7547 29.475C92.5673 29.475 92.4659 29.3476 92.4506 29.0939C92.449 29.0835 92.4481 29.0655 92.4481 29.0408C92.4481 28.959 92.453 28.7955 92.461 28.5494C92.4732 28.2377 92.4787 27.9744 92.4787 27.7578C92.4787 27.5249 92.4714 27.3292 92.4562 27.1696C92.4401 27.1097 92.412 27.0802 92.3717 27.0802C92.3049 27.0802 92.1761 27.2209 91.9854 27.5021C91.9266 27.5858 91.8164 27.754 91.6546 28.0058C91.5999 28.1037 91.4945 28.29 91.3391 28.5665C91.142 28.9106 91.0011 29.0825 90.915 29.0825C90.8619 29.0825 90.8031 29.0027 90.7396 28.843C90.6849 28.7024 90.6575 28.613 90.6575 28.5751C90.6575 28.3878 90.6816 28.0914 90.7308 27.6856C90.7959 27.1524 90.8716 26.8854 90.9569 26.8854C91.0422 26.8854 91.1025 26.9586 91.1452 27.1049L91.2474 27.4461C91.3867 27.2588 91.5524 27.0412 91.7447 26.7923C92.0554 26.3941 92.2807 26.1955 92.4216 26.1955C92.5222 26.1955 92.634 26.3266 92.7563 26.5889C92.8554 26.8027 92.9085 26.9396 92.9141 26.9995C92.9455 27.3187 92.9608 27.6237 92.9608 27.9127V28.0429C92.9713 28.0562 92.9841 28.0638 93.0002 28.0638C93.055 28.0638 93.1322 27.982 93.2312 27.8205C93.2932 27.7473 93.5161 27.4946 93.8992 27.0612C94.0867 26.9015 94.275 26.8217 94.4625 26.8217H94.5293C94.5559 26.9196 94.5961 26.9899 94.6492 27.0327C94.7128 27.1705 94.7828 27.3776 94.8601 27.6542C94.8705 27.773 94.8753 27.9184 94.8753 28.0885C94.8753 28.2587 94.8698 28.4553 94.8601 28.6767C94.8569 28.7176 94.8553 28.7633 94.8553 28.8146C94.8553 28.9304 94.8609 29.0664 94.873 29.2204C94.8939 29.4883 94.9043 29.667 94.9043 29.7564C94.8987 29.7564 94.8673 29.763 94.8126 29.7763L94.815 29.7782ZM96.5726 28.9258C96.5726 28.9741 96.551 29.1206 96.5091 29.3638L96.4342 29.3885C96.4342 29.3885 96.4286 29.3923 96.4229 29.3923C96.3843 29.3923 96.3006 29.3591 96.1718 29.2907C96.1735 29.2831 96.1751 29.2735 96.1751 29.2621C96.1751 29.2051 96.1541 29.131 96.1115 29.0388C96.0463 28.901 96.0093 28.8117 96.0021 28.7709C96.0005 28.7633 95.9989 28.7452 95.9989 28.7186C95.9989 28.6349 96.0069 28.4667 96.0221 28.2149C96.0527 27.7036 96.097 27.2437 96.155 26.8341C96.2073 26.7362 96.2716 26.6877 96.3482 26.6877C96.4326 26.6877 96.4954 26.778 96.5356 26.9596C96.5413 26.9918 96.5542 27.6447 96.5735 28.9162V28.9248L96.5726 28.9258ZM96.5671 25.9436C96.3183 25.8675 96.1944 25.7555 96.1944 25.6062C96.1944 25.4571 96.2443 25.2974 96.3449 25.1112C96.3972 25.1054 96.5066 25.0912 96.6724 25.0665C96.7506 25.2423 96.7892 25.4105 96.7892 25.5701C96.7892 25.6376 96.7151 25.7621 96.5671 25.9436ZM106.019 27.6637C106.006 27.9383 105.972 28.1008 105.918 28.1513C105.833 28.1513 105.648 28.1845 105.363 28.2519L104.938 28.3527H104.941C104.941 28.3583 104.867 28.3888 104.719 28.4449C104.702 28.4192 104.658 28.4068 104.589 28.4068C104.569 28.4429 104.557 28.4639 104.554 28.4695C104.554 28.5485 104.719 28.6701 105.052 28.8354C105.143 28.844 105.247 28.8592 105.363 28.8821C105.558 28.9238 105.656 29.0112 105.656 29.1424C105.656 29.1785 105.596 29.2517 105.474 29.361C105.47 29.3695 105.437 29.4256 105.378 29.5292C105.268 29.5482 105.212 29.5606 105.21 29.5672C105.212 29.5672 105.214 29.5672 105.214 29.5672H105.21C105.191 29.5653 105.113 29.5558 104.973 29.5378L104.725 29.5045C104.673 29.5045 104.588 29.455 104.47 29.3572C104.445 29.3344 104.377 29.2717 104.265 29.1681C104.131 29.0845 104.01 28.9266 103.9 28.6958C103.791 28.4649 103.736 28.2539 103.736 28.0638C103.736 27.8281 103.752 27.6552 103.785 27.543C104.019 26.7219 104.496 26.3124 105.214 26.3124C105.447 26.3124 105.622 26.4074 105.738 26.5984C105.828 26.7438 105.919 26.9243 106.006 27.1401C106.018 27.2047 106.023 27.2988 106.023 27.4213C106.023 27.4917 106.021 27.5724 106.018 27.6646L106.019 27.6637ZM108.35 27.2285C108.399 27.2418 108.503 27.2912 108.658 27.3748C108.697 27.4024 108.777 27.4546 108.901 27.5335L108.934 27.5535C108.956 27.5668 109.028 27.6209 109.148 27.716C109.223 27.773 109.288 27.868 109.346 28.0002C109.37 28.0485 109.39 28.1493 109.406 28.3004C109.406 28.3062 109.415 28.3356 109.433 28.3898C109.451 28.4439 109.461 28.4781 109.461 28.4914C109.461 28.538 109.433 28.6016 109.375 28.6843C109.317 28.7671 109.26 28.8232 109.206 28.8525C109.106 28.9096 108.911 29.0188 108.625 29.1813C108.3 29.3629 108.057 29.4532 107.897 29.4532C107.893 29.4532 107.862 29.4428 107.804 29.4208C107.746 29.399 107.717 29.3885 107.714 29.3885C107.707 29.3885 107.653 29.4104 107.55 29.4532C107.526 29.4532 107.494 29.4019 107.454 29.2992C107.413 29.2013 107.392 29.1272 107.392 29.0759C107.392 29.0597 107.414 28.9961 107.461 28.8849L108.142 28.653C108.433 28.5551 108.631 28.4487 108.739 28.3318C108.739 28.3156 108.738 28.2994 108.734 28.2833C108.684 28.213 108.525 28.0762 108.255 27.8737C107.972 27.6599 107.81 27.5297 107.766 27.4841C107.714 27.4518 107.629 27.3662 107.514 27.2285C107.482 27.1714 107.465 27.0536 107.465 26.8749C107.465 26.8883 107.463 26.8949 107.459 26.8949C107.456 26.8949 107.452 26.8721 107.444 26.8255C107.441 26.8093 107.44 26.7932 107.44 26.7771C107.44 26.663 107.511 26.5566 107.653 26.4568C107.823 26.3352 108.078 26.2212 108.415 26.1138C108.751 26.0073 109.029 25.9531 109.246 25.9531C109.306 25.9531 109.344 25.9711 109.362 26.0064C109.45 26.1851 109.495 26.3152 109.495 26.3959C109.495 26.55 109.466 26.6516 109.408 26.7001C109.358 26.7248 109.135 26.7761 108.738 26.854C108.662 26.9111 108.621 26.9396 108.612 26.9396C108.607 26.9396 108.595 26.9339 108.573 26.9234C108.551 26.9129 108.536 26.9073 108.531 26.9073C108.451 26.9073 108.355 26.9558 108.248 27.0536C108.269 27.1239 108.303 27.1819 108.35 27.2285ZM111.722 27.2285C111.771 27.2418 111.874 27.2912 112.03 27.3748C112.068 27.4024 112.149 27.4546 112.272 27.5335L112.305 27.5535C112.329 27.5668 112.4 27.6209 112.52 27.716C112.594 27.773 112.661 27.868 112.719 28.0002C112.741 28.0485 112.762 28.1493 112.778 28.3004C112.778 28.3062 112.786 28.3356 112.806 28.3898C112.824 28.4439 112.833 28.4781 112.833 28.4914C112.833 28.538 112.804 28.6016 112.747 28.6843C112.689 28.7671 112.632 28.8232 112.577 28.8525C112.477 28.9096 112.283 29.0188 111.996 29.1813C111.67 29.3629 111.428 29.4532 111.269 29.4532C111.264 29.4532 111.233 29.4428 111.176 29.4208C111.118 29.399 111.088 29.3885 111.084 29.3885C111.078 29.3885 111.024 29.4104 110.92 29.4532C110.897 29.4532 110.864 29.4019 110.826 29.2992C110.784 29.2013 110.763 29.1272 110.763 29.0759C110.763 29.0597 110.786 28.9961 110.832 28.8849L111.513 28.653C111.804 28.5551 112.003 28.4487 112.11 28.3318C112.11 28.3156 112.108 28.2994 112.106 28.2833C112.055 28.213 111.896 28.0762 111.626 27.8737C111.344 27.6599 111.181 27.5297 111.138 27.4841C111.084 27.4518 111 27.3662 110.885 27.2285C110.853 27.1714 110.835 27.0536 110.835 26.8749C110.835 26.8883 110.834 26.8949 110.831 26.8949C110.828 26.8949 110.822 26.8721 110.816 26.8255C110.813 26.8093 110.811 26.7932 110.811 26.7771C110.811 26.663 110.882 26.5566 111.024 26.4568C111.194 26.3352 111.448 26.2212 111.785 26.1138C112.123 26.0073 112.4 25.9531 112.618 25.9531C112.677 25.9531 112.715 25.9711 112.733 26.0064C112.822 26.1851 112.867 26.3152 112.867 26.3959C112.867 26.55 112.838 26.6516 112.78 26.7001C112.728 26.7248 112.506 26.7761 112.109 26.854C112.033 26.9111 111.991 26.9396 111.983 26.9396C111.978 26.9396 111.965 26.9339 111.945 26.9234C111.921 26.9129 111.907 26.9073 111.903 26.9073C111.822 26.9073 111.727 26.9558 111.619 27.0536C111.64 27.1239 111.673 27.1819 111.721 27.2285H111.722Z" fill="#A4A6A7"/>
</g>
<defs>
<clipPath id="clip0_1_917">
<rect width="116" height="32" fill="white"/>
</clipPath>
</defs>
</svg>
